<?xml version="1.0" encoding="UTF-8" standalone="no"?>
<!-- Created with Inkscape (http://www.inkscape.org/) -->

<svg
   width="512"
   height="512"
   viewBox="0 0 512 512"
   version="1.1"
   id="svg5"
   xmlns="http://www.w3.org/2000/svg"
   xmlns:svg="http://www.w3.org/2000/svg">
  <defs
     id="defs2" />
  <g
     id="layer1">
    <path
       style="fill:#ffffff;stroke:none;stroke-width:2;stroke-miterlimit:4;stroke-dasharray:none;stroke-opacity:1;fill-opacity:1"
       id="path1200"
       d="m 427.86382,427.86382 c -13.57754,13.57754 -27.61741,9.45432 -43.58291,20.12213 -15.9655,10.6678 -17.52897,25.21683 -35.26888,32.56495 -17.73991,7.34811 -29.13318,-1.83407 -47.96576,1.91197 -18.83259,3.74603 -25.84473,16.58927 -45.04627,16.58927 -19.20154,0 -26.21367,-12.84324 -45.04626,-16.58927 -18.83259,-3.74604 -30.22585,5.43614 -47.96577,-1.91197 -17.73991,-7.34811 -19.30338,-21.89715 -35.26888,-32.56495 C 111.75359,437.31814 97.713725,441.44136 84.136185,427.86382 70.558645,414.28628 74.681858,400.24641 64.014053,384.28091 53.346248,368.31541 38.797215,366.75194 31.449104,349.01203 24.100992,331.27212 33.283169,319.87885 29.537134,301.04627 25.791099,282.21368 12.947861,275.20154 12.947861,256 c 0,-19.20154 12.843238,-26.21367 16.589273,-45.04626 3.746034,-18.83259 -5.436143,-30.22585 1.911969,-47.96577 7.348112,-17.73991 21.897144,-19.30338 32.564949,-35.26888 10.667804,-15.9655 6.544591,-30.005365 20.122132,-43.582905 13.57754,-13.57754 27.617406,-9.454327 43.582906,-20.122132 15.9655,-10.667805 17.52897,-25.216838 35.26888,-32.564949 17.73991,-7.348112 29.13318,1.834065 47.96576,-1.91197 C 229.78632,25.791099 236.79846,12.947861 256,12.947861 c 19.20154,0 26.21367,12.843238 45.04626,16.589273 18.83259,3.746034 30.22585,-5.436143 47.96577,1.911969 17.73991,7.348112 19.30338,21.897144 35.26888,32.564949 15.9655,10.667804 30.00537,6.544591 43.58291,20.122132 13.57754,13.57754 9.45432,27.617406 20.12213,43.582906 10.6678,15.9655 25.21683,17.52897 32.56495,35.26888 7.34811,17.73991 -1.83407,29.13318 1.91197,47.96576 3.74603,18.83259 16.58927,25.84473 16.58927,45.04627 0,19.20154 -12.84324,26.21367 -16.58927,45.04626 -3.74604,18.83259 5.43614,30.22585 -1.91197,47.96577 -7.34811,17.73991 -21.89715,19.30338 -32.56495,35.26888 -10.66781,15.9655 -6.54459,30.00537 -20.12213,43.58291 z" />
  </g>
</svg>
